<svg width="20" height="20" viewBox="0 0 20 20" fill="none" xmlns="http://www.w3.org/2000/svg">
<circle cx="10" cy="10" r="10" fill="#474948" style="fill:#474948;fill:color(display-p3 0.2784 0.2863 0.2824);fill-opacity:1;"/>
<path d="M6.568 5.48C6.74933 5.32 6.94667 5.168 7.16 5.024C7.37867 4.88 7.61333 4.75467 7.864 4.648C8.11467 4.54133 8.38667 4.45867 8.68 4.4C8.97333 4.336 9.29067 4.304 9.632 4.304C10.096 4.304 10.5173 4.368 10.896 4.496C11.28 4.624 11.608 4.808 11.88 5.048C12.152 5.28267 12.3627 5.568 12.512 5.904C12.6613 6.24 12.736 6.616 12.736 7.032C12.736 7.43733 12.6773 7.78933 12.56 8.088C12.4427 8.38133 12.296 8.63733 12.12 8.856C11.944 9.07467 11.7493 9.264 11.536 9.424C11.328 9.584 11.1307 9.736 10.944 9.88C10.7573 10.0187 10.5947 10.1573 10.456 10.296C10.3227 10.4293 10.2427 10.5813 10.216 10.752L10.032 11.92H8.68L8.544 10.616C8.512 10.3653 8.54667 10.1467 8.648 9.96C8.75467 9.768 8.89333 9.59467 9.064 9.44C9.24 9.28 9.43467 9.128 9.648 8.984C9.86133 8.83467 10.0613 8.67467 10.248 8.504C10.4347 8.328 10.5893 8.13333 10.712 7.92C10.84 7.70133 10.904 7.44267 10.904 7.144C10.904 6.952 10.8667 6.78133 10.792 6.632C10.7227 6.47733 10.624 6.34667 10.496 6.24C10.368 6.128 10.2133 6.04267 10.032 5.984C9.856 5.92533 9.664 5.896 9.456 5.896C9.152 5.896 8.89333 5.93067 8.68 6C8.472 6.064 8.29333 6.13867 8.144 6.224C8 6.304 7.87733 6.37867 7.776 6.448C7.67467 6.512 7.584 6.544 7.504 6.544C7.312 6.544 7.17333 6.464 7.088 6.304L6.568 5.48ZM8.08 14.912C8.08 14.7467 8.10933 14.5893 8.168 14.44C8.232 14.2907 8.31733 14.1627 8.424 14.056C8.53067 13.9493 8.65867 13.864 8.808 13.8C8.95733 13.736 9.11733 13.704 9.288 13.704C9.45867 13.704 9.616 13.736 9.76 13.8C9.90933 13.864 10.0373 13.9493 10.144 14.056C10.256 14.1627 10.344 14.2907 10.408 14.44C10.472 14.5893 10.504 14.7467 10.504 14.912C10.504 15.0827 10.472 15.2427 10.408 15.392C10.344 15.536 10.256 15.6613 10.144 15.768C10.0373 15.8747 9.90933 15.9573 9.76 16.016C9.616 16.08 9.45867 16.112 9.288 16.112C9.11733 16.112 8.95733 16.08 8.808 16.016C8.65867 15.9573 8.53067 15.8747 8.424 15.768C8.31733 15.6613 8.232 15.536 8.168 15.392C8.10933 15.2427 8.08 15.0827 8.08 14.912Z" fill="white" style="fill:white;fill-opacity:1;"/>
</svg>
