<svg width="20" height="20" viewBox="0 0 20 20" fill="none" xmlns="http://www.w3.org/2000/svg">
<path d="M10 0.0442905C4.47857 0.0442905 0 4.50143 0 9.97286C0 14.1014 2.5 17.6157 6.13571 19.1871C6.39155 19.2954 6.66827 19.3453 6.94579 19.3333C7.22332 19.3212 7.49468 19.2476 7.7402 19.1176C7.98572 18.9877 8.19923 18.8047 8.36525 18.582C8.53126 18.3593 8.64561 18.1024 8.7 17.83C8.78591 17.4061 8.72172 16.9654 8.51843 16.5836C8.31514 16.2018 7.98541 15.9026 7.58571 15.7371C5.33571 14.7943 3.75 12.5793 3.75 9.99358C3.75 6.55072 6.55 3.765 10 3.765C13.45 3.765 16.25 6.55072 16.25 9.99358C16.25 12.5793 14.6643 14.7936 12.4143 15.7364V15.7379C12.0111 15.9006 11.6775 16.1992 11.4712 16.5819C11.2649 16.9646 11.1988 17.4073 11.2844 17.8336C11.37 18.2599 11.6019 18.6428 11.9399 18.9162C12.278 19.1896 12.701 19.3362 13.1357 19.3307C13.3832 19.3288 13.6281 19.2796 13.8571 19.1857C17.4929 17.65 20 14.1286 20 9.97143C20 4.47143 15.5214 0.0428619 10 0.0428619" fill="#00AA13" style="fill:#00AA13;fill:color(display-p3 0.0000 0.6667 0.0745);fill-opacity:1;"/>
</svg>
